<?xml version="1.0" encoding="UTF-8" standalone="no"?>
<!DOCTYPE svg PUBLIC "-//W3C//DTD SVG 1.1//EN"
 "http://www.w3.org/Graphics/SVG/1.1/DTD/svg11.dtd">
<!-- Generated by graphviz version 2.28.0 (20111028.1807)
 -->
<!-- Title: uml_class_diagram Pages: 1 -->
<svg width="1089pt" height="634pt"
 viewBox="0.00 0.00 1089.00 634.00" xmlns="http://www.w3.org/2000/svg" xmlns:xlink="http://www.w3.org/1999/xlink">
<g id="graph1" class="graph" transform="scale(1 1) rotate(0) translate(4 630)">
<title>uml_class_diagram</title>
<polygon fill="white" stroke="white" points="-4,5 -4,-630 1086,-630 1086,5 -4,5"/>
<!-- class_1 -->
<g id="node1" class="node"><title>class_1</title>
<polygon fill="#f1e1f4" stroke="#f1e1f4" points="26,-145 26,-170 134,-170 134,-145 26,-145"/>
<polygon fill="none" stroke="black" points="26,-145 26,-170 134,-170 134,-145 26,-145"/>
<text text-anchor="start" x="35.5" y="-151.5" font-family="Times,serif" font-size="14.00">FAIR::Accessor</text>
<polygon fill="none" stroke="black" points="26,-133 26,-145 134,-145 134,-133 26,-133"/>
<polygon fill="white" stroke="white" points="80,-138 80,-140 129,-140 129,-138 80,-138"/>
<polygon fill="none" stroke="black" points="26,-109 26,-133 134,-133 134,-109 26,-109"/>
<text text-anchor="start" x="31.5" y="-115" font-family="Times,serif" font-size="14.00" fill="red">+</text>
<polygon fill="white" stroke="white" points="39,-114 39,-128 129,-128 129,-114 39,-114"/>
<text text-anchor="start" x="39" y="-115" font-family="Times,serif" font-size="14.00">handle_requests</text>
</g>
<!-- class_2 -->
<g id="node2" class="node"><title>class_2</title>
<polygon fill="#f1e1f4" stroke="#f1e1f4" points="8,-596 8,-621 151,-621 151,-596 8,-596"/>
<polygon fill="none" stroke="black" points="8,-596 8,-621 151,-621 151,-596 8,-596"/>
<text text-anchor="start" x="21" y="-602.5" font-family="Times,serif" font-size="14.00">FAIR::AccessorBase</text>
<polygon fill="none" stroke="black" points="8,-584 8,-596 151,-596 151,-584 8,-584"/>
<polygon fill="white" stroke="white" points="80,-589 80,-591 146,-591 146,-589 80,-589"/>
<polygon fill="none" stroke="black" points="8,-378 8,-584 151,-584 151,-378 8,-378"/>
<text text-anchor="start" x="13.5" y="-566" font-family="Times,serif" font-size="14.00" fill="red">+</text>
<text text-anchor="start" x="13.5" y="-552" font-family="Times,serif" font-size="14.00" fill="red">+</text>
<text text-anchor="start" x="13.5" y="-538" font-family="Times,serif" font-size="14.00" fill="red">+</text>
<text text-anchor="start" x="13.5" y="-524" font-family="Times,serif" font-size="14.00" fill="red">+</text>
<text text-anchor="start" x="13.5" y="-510" font-family="Times,serif" font-size="14.00" fill="red">+</text>
<text text-anchor="start" x="13.5" y="-496" font-family="Times,serif" font-size="14.00" fill="red">+</text>
<text text-anchor="start" x="13.5" y="-482" font-family="Times,serif" font-size="14.00" fill="red">+</text>
<text text-anchor="start" x="13.5" y="-468" font-family="Times,serif" font-size="14.00" fill="red">+</text>
<text text-anchor="start" x="13.5" y="-454" font-family="Times,serif" font-size="14.00" fill="red">+</text>
<text text-anchor="start" x="13.5" y="-440" font-family="Times,serif" font-size="14.00" fill="red">+</text>
<text text-anchor="start" x="13.5" y="-426" font-family="Times,serif" font-size="14.00" fill="red">+</text>
<text text-anchor="start" x="13.5" y="-412" font-family="Times,serif" font-size="14.00" fill="red">+</text>
<text text-anchor="start" x="13.5" y="-398" font-family="Times,serif" font-size="14.00" fill="red">+</text>
<text text-anchor="start" x="13.5" y="-384" font-family="Times,serif" font-size="14.00" fill="red">+</text>
<polygon fill="white" stroke="white" points="21,-383 21,-579 146,-579 146,-383 21,-383"/>
<text text-anchor="start" x="21" y="-566" font-family="Times,serif" font-size="14.00">BUILDARGS</text>
<text text-anchor="start" x="21" y="-552" font-family="Times,serif" font-size="14.00">Configuration</text>
<text text-anchor="start" x="21" y="-538" font-family="Times,serif" font-size="14.00">callDataAccessor</text>
<text text-anchor="start" x="21" y="-524" font-family="Times,serif" font-size="14.00">callMetadataAccessor</text>
<text text-anchor="start" x="21" y="-510" font-family="Times,serif" font-size="14.00">get_all_meta_URIs</text>
<text text-anchor="start" x="21" y="-496" font-family="Times,serif" font-size="14.00">get_distribution_URIs</text>
<text text-anchor="start" x="21" y="-482" font-family="Times,serif" font-size="14.00">manageContainerGET</text>
<text text-anchor="start" x="21" y="-468" font-family="Times,serif" font-size="14.00">manageHEAD</text>
<text text-anchor="start" x="21" y="-454" font-family="Times,serif" font-size="14.00">manageResourceGET</text>
<text text-anchor="start" x="21" y="-440" font-family="Times,serif" font-size="14.00">meta</text>
<text text-anchor="start" x="21" y="-426" font-family="Times,serif" font-size="14.00">printContainerHeader</text>
<text text-anchor="start" x="21" y="-412" font-family="Times,serif" font-size="14.00">printResourceHeader</text>
<text text-anchor="start" x="21" y="-398" font-family="Times,serif" font-size="14.00">serializeThis</text>
<text text-anchor="start" x="21" y="-384" font-family="Times,serif" font-size="14.00">statement</text>
</g>
<!-- angle_2 -->
<g id="node11" class="node"><title>angle_2</title>
<polygon fill="yellow" stroke="black" points="80,-338 69,-321.5 91,-321.5 80,-338"/>
</g>
<!-- class_2&#45;&gt;angle_2 -->
<g id="edge2" class="edge"><title>class_2:methods&#45;&gt;angle_2</title>
<path fill="none" stroke="red" d="M80,-377C80,-363.559 80,-348.044 80,-338.135"/>
</g>
<!-- class_3 -->
<g id="node3" class="node"><title>class_3</title>
<polygon fill="#f1e1f4" stroke="#f1e1f4" points="185,-596 185,-621 366,-621 366,-596 185,-596"/>
<polygon fill="none" stroke="black" points="185,-596 185,-621 366,-621 366,-596 185,-596"/>
<text text-anchor="start" x="211.5" y="-602.5" font-family="Times,serif" font-size="14.00">FAIR::AccessorConfig</text>
<polygon fill="none" stroke="black" points="185,-584 185,-596 366,-596 366,-584 185,-584"/>
<polygon fill="white" stroke="white" points="276,-589 276,-591 361,-591 361,-589 276,-589"/>
<polygon fill="none" stroke="black" points="185,-378 185,-584 366,-584 366,-378 185,-378"/>
<text text-anchor="start" x="190.5" y="-566" font-family="Times,serif" font-size="14.00" fill="red">+</text>
<text text-anchor="start" x="190.5" y="-552" font-family="Times,serif" font-size="14.00" fill="red">+</text>
<text text-anchor="start" x="190.5" y="-538" font-family="Times,serif" font-size="14.00" fill="red">+</text>
<text text-anchor="start" x="190.5" y="-524" font-family="Times,serif" font-size="14.00" fill="red">+</text>
<text text-anchor="start" x="190.5" y="-510" font-family="Times,serif" font-size="14.00" fill="red">+</text>
<text text-anchor="start" x="190.5" y="-496" font-family="Times,serif" font-size="14.00" fill="red">+</text>
<text text-anchor="start" x="190.5" y="-482" font-family="Times,serif" font-size="14.00" fill="red">+</text>
<text text-anchor="start" x="190.5" y="-468" font-family="Times,serif" font-size="14.00" fill="red">+</text>
<text text-anchor="start" x="190.5" y="-454" font-family="Times,serif" font-size="14.00" fill="red">+</text>
<text text-anchor="start" x="190.5" y="-440" font-family="Times,serif" font-size="14.00" fill="red">+</text>
<text text-anchor="start" x="190.5" y="-426" font-family="Times,serif" font-size="14.00" fill="red">+</text>
<text text-anchor="start" x="190.5" y="-412" font-family="Times,serif" font-size="14.00" fill="red">+</text>
<text text-anchor="start" x="190.5" y="-398" font-family="Times,serif" font-size="14.00" fill="red">+</text>
<text text-anchor="start" x="190.5" y="-384" font-family="Times,serif" font-size="14.00" fill="red">+</text>
<polygon fill="white" stroke="white" points="198,-383 198,-579 361,-579 361,-383 198,-383"/>
<text text-anchor="start" x="198" y="-566" font-family="Times,serif" font-size="14.00">BUILD</text>
<text text-anchor="start" x="198" y="-552" font-family="Times,serif" font-size="14.00">ETAG_Base</text>
<text text-anchor="start" x="198" y="-538" font-family="Times,serif" font-size="14.00">MetadataElements</text>
<text text-anchor="start" x="198" y="-524" font-family="Times,serif" font-size="14.00">Namespaces</text>
<text text-anchor="start" x="198" y="-510" font-family="Times,serif" font-size="14.00">basePATH</text>
<text text-anchor="start" x="198" y="-496" font-family="Times,serif" font-size="14.00">localMetadataElements</text>
<text text-anchor="start" x="198" y="-482" font-family="Times,serif" font-size="14.00">localNamespaces</text>
<text text-anchor="start" x="198" y="-468" font-family="Times,serif" font-size="14.00">mechanizedAccessibilityInfo</text>
<text text-anchor="start" x="198" y="-454" font-family="Times,serif" font-size="14.00">mechanizedLicenseInfo</text>
<text text-anchor="start" x="198" y="-440" font-family="Times,serif" font-size="14.00">meta</text>
<text text-anchor="start" x="198" y="-426" font-family="Times,serif" font-size="14.00">serviceTextualDescription</text>
<text text-anchor="start" x="198" y="-412" font-family="Times,serif" font-size="14.00">textualAccessibilityInfo</text>
<text text-anchor="start" x="198" y="-398" font-family="Times,serif" font-size="14.00">textualLicenseInfo</text>
<text text-anchor="start" x="198" y="-384" font-family="Times,serif" font-size="14.00">title</text>
</g>
<!-- class_4 -->
<g id="node4" class="node"><title>class_4</title>
<polygon fill="#f1e1f4" stroke="#f1e1f4" points="400,-519 400,-544 476,-544 476,-519 400,-519"/>
<polygon fill="none" stroke="black" points="400,-519 400,-544 476,-544 476,-519 400,-519"/>
<text text-anchor="start" x="405.5" y="-525.5" font-family="Times,serif" font-size="14.00">FAIR::Base</text>
<polygon fill="none" stroke="black" points="400,-507 400,-519 476,-519 476,-507 400,-507"/>
<polygon fill="white" stroke="white" points="438,-512 438,-514 471,-514 471,-512 438,-512"/>
<polygon fill="none" stroke="black" points="400,-455 400,-507 476,-507 476,-455 400,-455"/>
<text text-anchor="start" x="405.5" y="-489" font-family="Times,serif" font-size="14.00" fill="red">&#45;</text>
<text text-anchor="start" x="405.5" y="-475" font-family="Times,serif" font-size="14.00" fill="red">+</text>
<text text-anchor="start" x="405.5" y="-461" font-family="Times,serif" font-size="14.00" fill="red">+</text>
<polygon fill="white" stroke="white" points="413,-460 413,-502 471,-502 471,-460 413,-460"/>
<text text-anchor="start" x="413" y="-489" font-family="Times,serif" font-size="14.00">_toTriples</text>
<text text-anchor="start" x="413" y="-475" font-family="Times,serif" font-size="14.00">statement</text>
<text text-anchor="start" x="413" y="-461" font-family="Times,serif" font-size="14.00">toTriples</text>
</g>
<!-- angle_4 -->
<g id="node14" class="node"><title>angle_4</title>
<polygon fill="yellow" stroke="black" points="438,-338 427,-321.5 449,-321.5 438,-338"/>
</g>
<!-- class_4&#45;&gt;angle_4 -->
<g id="edge6" class="edge"><title>class_4:methods&#45;&gt;angle_4</title>
<path fill="none" stroke="red" d="M438,-454C438,-410.906 438,-359.522 438,-338.126"/>
</g>
<!-- class_5 -->
<g id="node5" class="node"><title>class_5</title>
<polygon fill="#f1e1f4" stroke="#f1e1f4" points="510,-568 510,-593 650,-593 650,-568 510,-568"/>
<polygon fill="none" stroke="black" points="510,-568 510,-593 650,-593 650,-568 510,-568"/>
<text text-anchor="start" x="515.5" y="-574.5" font-family="Times,serif" font-size="14.00">FAIR::NAMESPACES</text>
<polygon fill="none" stroke="black" points="510,-556 510,-568 650,-568 650,-556 510,-556"/>
<polygon fill="white" stroke="white" points="580,-561 580,-563 645,-563 645,-561 580,-561"/>
<polygon fill="none" stroke="black" points="510,-406 510,-556 650,-556 650,-406 510,-406"/>
<text text-anchor="start" x="532.5" y="-538" font-family="Times,serif" font-size="14.00" fill="red">+</text>
<text text-anchor="start" x="532.5" y="-524" font-family="Times,serif" font-size="14.00" fill="red">+</text>
<text text-anchor="start" x="532.5" y="-510" font-family="Times,serif" font-size="14.00" fill="red">+</text>
<text text-anchor="start" x="532.5" y="-496" font-family="Times,serif" font-size="14.00" fill="red">+</text>
<text text-anchor="start" x="532.5" y="-482" font-family="Times,serif" font-size="14.00" fill="red">+</text>
<text text-anchor="start" x="532.5" y="-468" font-family="Times,serif" font-size="14.00" fill="red">+</text>
<text text-anchor="start" x="532.5" y="-454" font-family="Times,serif" font-size="14.00" fill="red">+</text>
<text text-anchor="start" x="532.5" y="-440" font-family="Times,serif" font-size="14.00" fill="red">+</text>
<text text-anchor="start" x="532.5" y="-426" font-family="Times,serif" font-size="14.00" fill="red">+</text>
<text text-anchor="start" x="532.5" y="-412" font-family="Times,serif" font-size="14.00" fill="red">+</text>
<polygon fill="white" stroke="white" points="557,-411 557,-551 645,-551 645,-411 557,-411"/>
<text text-anchor="start" x="557" y="-538" font-family="Times,serif" font-size="14.00">DC</text>
<text text-anchor="start" x="557" y="-524" font-family="Times,serif" font-size="14.00">DCAT</text>
<text text-anchor="start" x="557" y="-510" font-family="Times,serif" font-size="14.00">DCTYPE</text>
<text text-anchor="start" x="557" y="-496" font-family="Times,serif" font-size="14.00">FAIR</text>
<text text-anchor="start" x="557" y="-482" font-family="Times,serif" font-size="14.00">FOAF</text>
<text text-anchor="start" x="557" y="-468" font-family="Times,serif" font-size="14.00">RDF</text>
<text text-anchor="start" x="557" y="-454" font-family="Times,serif" font-size="14.00">RDFS</text>
<text text-anchor="start" x="557" y="-440" font-family="Times,serif" font-size="14.00">SKOS</text>
<text text-anchor="start" x="557" y="-426" font-family="Times,serif" font-size="14.00">VCARD</text>
<text text-anchor="start" x="557" y="-412" font-family="Times,serif" font-size="14.00">XSD</text>
</g>
<!-- class_6 -->
<g id="node6" class="node"><title>class_6</title>
<polygon fill="#f1e1f4" stroke="#f1e1f4" points="238,-250 238,-275 341,-275 341,-250 238,-250"/>
<polygon fill="none" stroke="black" points="238,-250 238,-275 341,-275 341,-250 238,-250"/>
<text text-anchor="start" x="252" y="-256.5" font-family="Times,serif" font-size="14.00">FAIR::Profile</text>
<polygon fill="none" stroke="black" points="238,-238 238,-250 341,-250 341,-238 238,-238"/>
<polygon fill="white" stroke="white" points="290,-243 290,-245 336,-245 336,-243 290,-243"/>
<polygon fill="none" stroke="black" points="238,-4 238,-238 341,-238 341,-4 238,-4"/>
<text text-anchor="start" x="243.5" y="-220" font-family="Times,serif" font-size="14.00" fill="red">+</text>
<text text-anchor="start" x="243.5" y="-206" font-family="Times,serif" font-size="14.00" fill="red">&#45;</text>
<text text-anchor="start" x="243.5" y="-192" font-family="Times,serif" font-size="14.00" fill="red">&#45;</text>
<text text-anchor="start" x="243.5" y="-178" font-family="Times,serif" font-size="14.00" fill="red">+</text>
<text text-anchor="start" x="243.5" y="-164" font-family="Times,serif" font-size="14.00" fill="red">+</text>
<text text-anchor="start" x="243.5" y="-150" font-family="Times,serif" font-size="14.00" fill="red">+</text>
<text text-anchor="start" x="243.5" y="-136" font-family="Times,serif" font-size="14.00" fill="red">+</text>
<text text-anchor="start" x="243.5" y="-122" font-family="Times,serif" font-size="14.00" fill="red">+</text>
<text text-anchor="start" x="243.5" y="-108" font-family="Times,serif" font-size="14.00" fill="red">+</text>
<text text-anchor="start" x="243.5" y="-94" font-family="Times,serif" font-size="14.00" fill="red">+</text>
<text text-anchor="start" x="243.5" y="-80" font-family="Times,serif" font-size="14.00" fill="red">+</text>
<text text-anchor="start" x="243.5" y="-66" font-family="Times,serif" font-size="14.00" fill="red">+</text>
<text text-anchor="start" x="243.5" y="-52" font-family="Times,serif" font-size="14.00" fill="red">+</text>
<text text-anchor="start" x="243.5" y="-38" font-family="Times,serif" font-size="14.00" fill="red">+</text>
<text text-anchor="start" x="243.5" y="-24" font-family="Times,serif" font-size="14.00" fill="red">+</text>
<text text-anchor="start" x="243.5" y="-10" font-family="Times,serif" font-size="14.00" fill="red">+</text>
<polygon fill="white" stroke="white" points="251,-9 251,-233 336,-233 336,-9 251,-9"/>
<text text-anchor="start" x="251" y="-220" font-family="Times,serif" font-size="14.00">URI</text>
<text text-anchor="start" x="251" y="-206" font-family="Times,serif" font-size="14.00">_add_Class</text>
<text text-anchor="start" x="251" y="-192" font-family="Times,serif" font-size="14.00">_generate_URI</text>
<text text-anchor="start" x="251" y="-178" font-family="Times,serif" font-size="14.00">add_Class</text>
<text text-anchor="start" x="251" y="-164" font-family="Times,serif" font-size="14.00">description</text>
<text text-anchor="start" x="251" y="-150" font-family="Times,serif" font-size="14.00">hasClass</text>
<text text-anchor="start" x="251" y="-136" font-family="Times,serif" font-size="14.00">identifier</text>
<text text-anchor="start" x="251" y="-122" font-family="Times,serif" font-size="14.00">issued</text>
<text text-anchor="start" x="251" y="-108" font-family="Times,serif" font-size="14.00">label</text>
<text text-anchor="start" x="251" y="-94" font-family="Times,serif" font-size="14.00">license</text>
<text text-anchor="start" x="251" y="-80" font-family="Times,serif" font-size="14.00">meta</text>
<text text-anchor="start" x="251" y="-66" font-family="Times,serif" font-size="14.00">modified</text>
<text text-anchor="start" x="251" y="-52" font-family="Times,serif" font-size="14.00">organization</text>
<text text-anchor="start" x="251" y="-38" font-family="Times,serif" font-size="14.00">serialize</text>
<text text-anchor="start" x="251" y="-24" font-family="Times,serif" font-size="14.00">title</text>
<text text-anchor="start" x="251" y="-10" font-family="Times,serif" font-size="14.00">type</text>
</g>
<!-- class_7 -->
<g id="node7" class="node"><title>class_7</title>
<polygon fill="#f1e1f4" stroke="#f1e1f4" points="375,-208 375,-233 500,-233 500,-208 375,-208"/>
<polygon fill="none" stroke="black" points="375,-208 375,-233 500,-233 500,-208 375,-208"/>
<text text-anchor="start" x="380.5" y="-214.5" font-family="Times,serif" font-size="14.00">FAIR::Profile::Class</text>
<polygon fill="none" stroke="black" points="375,-196 375,-208 500,-208 500,-196 375,-196"/>
<polygon fill="white" stroke="white" points="438,-201 438,-203 495,-203 495,-201 438,-201"/>
<polygon fill="none" stroke="black" points="375,-46 375,-196 500,-196 500,-46 375,-46"/>
<text text-anchor="start" x="386" y="-178" font-family="Times,serif" font-size="14.00" fill="red">+</text>
<text text-anchor="start" x="386" y="-164" font-family="Times,serif" font-size="14.00" fill="red">&#45;</text>
<text text-anchor="start" x="386" y="-150" font-family="Times,serif" font-size="14.00" fill="red">&#45;</text>
<text text-anchor="start" x="386" y="-136" font-family="Times,serif" font-size="14.00" fill="red">+</text>
<text text-anchor="start" x="386" y="-122" font-family="Times,serif" font-size="14.00" fill="red">+</text>
<text text-anchor="start" x="386" y="-108" font-family="Times,serif" font-size="14.00" fill="red">+</text>
<text text-anchor="start" x="386" y="-94" font-family="Times,serif" font-size="14.00" fill="red">+</text>
<text text-anchor="start" x="386" y="-80" font-family="Times,serif" font-size="14.00" fill="red">+</text>
<text text-anchor="start" x="386" y="-66" font-family="Times,serif" font-size="14.00" fill="red">+</text>
<text text-anchor="start" x="386" y="-52" font-family="Times,serif" font-size="14.00" fill="red">+</text>
<polygon fill="white" stroke="white" points="399,-51 399,-191 495,-191 495,-51 399,-51"/>
<text text-anchor="start" x="399" y="-178" font-family="Times,serif" font-size="14.00">URI</text>
<text text-anchor="start" x="399" y="-164" font-family="Times,serif" font-size="14.00">_add_Property</text>
<text text-anchor="start" x="399" y="-150" font-family="Times,serif" font-size="14.00">_generate_URI</text>
<text text-anchor="start" x="399" y="-136" font-family="Times,serif" font-size="14.00">add_Property</text>
<text text-anchor="start" x="399" y="-122" font-family="Times,serif" font-size="14.00">hasProperty</text>
<text text-anchor="start" x="399" y="-108" font-family="Times,serif" font-size="14.00">label</text>
<text text-anchor="start" x="399" y="-94" font-family="Times,serif" font-size="14.00">meta</text>
<text text-anchor="start" x="399" y="-80" font-family="Times,serif" font-size="14.00">onClassType</text>
<text text-anchor="start" x="399" y="-66" font-family="Times,serif" font-size="14.00">provenance</text>
<text text-anchor="start" x="399" y="-52" font-family="Times,serif" font-size="14.00">type</text>
</g>
<!-- class_8 -->
<g id="node8" class="node"><title>class_8</title>
<polygon fill="#f1e1f4" stroke="#f1e1f4" points="684,-596 684,-621 830,-621 830,-596 684,-596"/>
<polygon fill="none" stroke="black" points="684,-596 684,-621 830,-621 830,-596 684,-596"/>
<text text-anchor="start" x="698" y="-602.5" font-family="Times,serif" font-size="14.00">FAIR::Profile::Parser</text>
<polygon fill="none" stroke="black" points="684,-584 684,-596 830,-596 830,-584 684,-584"/>
<polygon fill="white" stroke="white" points="757,-589 757,-591 825,-591 825,-589 757,-589"/>
<polygon fill="none" stroke="black" points="684,-378 684,-584 830,-584 830,-378 684,-378"/>
<text text-anchor="start" x="689.5" y="-566" font-family="Times,serif" font-size="14.00" fill="red">&#45;</text>
<text text-anchor="start" x="689.5" y="-552" font-family="Times,serif" font-size="14.00" fill="red">&#45;</text>
<text text-anchor="start" x="689.5" y="-538" font-family="Times,serif" font-size="14.00" fill="red">&#45;</text>
<text text-anchor="start" x="689.5" y="-524" font-family="Times,serif" font-size="14.00" fill="red">&#45;</text>
<text text-anchor="start" x="689.5" y="-510" font-family="Times,serif" font-size="14.00" fill="red">&#45;</text>
<text text-anchor="start" x="689.5" y="-496" font-family="Times,serif" font-size="14.00" fill="red">&#45;</text>
<text text-anchor="start" x="689.5" y="-482" font-family="Times,serif" font-size="14.00" fill="red">+</text>
<text text-anchor="start" x="689.5" y="-468" font-family="Times,serif" font-size="14.00" fill="red">+</text>
<text text-anchor="start" x="689.5" y="-454" font-family="Times,serif" font-size="14.00" fill="red">+</text>
<text text-anchor="start" x="689.5" y="-440" font-family="Times,serif" font-size="14.00" fill="red">+</text>
<text text-anchor="start" x="689.5" y="-426" font-family="Times,serif" font-size="14.00" fill="red">+</text>
<text text-anchor="start" x="689.5" y="-412" font-family="Times,serif" font-size="14.00" fill="red">+</text>
<text text-anchor="start" x="689.5" y="-398" font-family="Times,serif" font-size="14.00" fill="red">+</text>
<text text-anchor="start" x="689.5" y="-384" font-family="Times,serif" font-size="14.00" fill="red">+</text>
<polygon fill="white" stroke="white" points="697,-383 697,-579 825,-579 825,-383 697,-383"/>
<text text-anchor="start" x="697" y="-566" font-family="Times,serif" font-size="14.00">_fillClass</text>
<text text-anchor="start" x="697" y="-552" font-family="Times,serif" font-size="14.00">_fillClasses</text>
<text text-anchor="start" x="697" y="-538" font-family="Times,serif" font-size="14.00">_fillProfile</text>
<text text-anchor="start" x="697" y="-524" font-family="Times,serif" font-size="14.00">_fillProperties</text>
<text text-anchor="start" x="697" y="-510" font-family="Times,serif" font-size="14.00">_fillProperty</text>
<text text-anchor="start" x="697" y="-496" font-family="Times,serif" font-size="14.00">_generatePrefixHeader</text>
<text text-anchor="start" x="697" y="-482" font-family="Times,serif" font-size="14.00">data</text>
<text text-anchor="start" x="697" y="-468" font-family="Times,serif" font-size="14.00">data_format</text>
<text text-anchor="start" x="697" y="-454" font-family="Times,serif" font-size="14.00">filename</text>
<text text-anchor="start" x="697" y="-440" font-family="Times,serif" font-size="14.00">getProfile</text>
<text text-anchor="start" x="697" y="-426" font-family="Times,serif" font-size="14.00">meta</text>
<text text-anchor="start" x="697" y="-412" font-family="Times,serif" font-size="14.00">model</text>
<text text-anchor="start" x="697" y="-398" font-family="Times,serif" font-size="14.00">parse</text>
<text text-anchor="start" x="697" y="-384" font-family="Times,serif" font-size="14.00">profile</text>
</g>
<!-- class_9 -->
<g id="node9" class="node"><title>class_9</title>
<polygon fill="#f1e1f4" stroke="#f1e1f4" points="534,-215 534,-240 676,-240 676,-215 534,-215"/>
<polygon fill="none" stroke="black" points="534,-215 534,-240 676,-240 676,-215 534,-215"/>
<text text-anchor="start" x="539.5" y="-221.5" font-family="Times,serif" font-size="14.00">FAIR::Profile::Property</text>
<polygon fill="none" stroke="black" points="534,-203 534,-215 676,-215 676,-203 534,-203"/>
<polygon fill="white" stroke="white" points="605,-208 605,-210 671,-210 671,-208 605,-208"/>
<polygon fill="none" stroke="black" points="534,-39 534,-203 676,-203 676,-39 534,-39"/>
<text text-anchor="start" x="542" y="-185" font-family="Times,serif" font-size="14.00" fill="red">+</text>
<text text-anchor="start" x="542" y="-171" font-family="Times,serif" font-size="14.00" fill="red">&#45;</text>
<text text-anchor="start" x="542" y="-157" font-family="Times,serif" font-size="14.00" fill="red">&#45;</text>
<text text-anchor="start" x="542" y="-143" font-family="Times,serif" font-size="14.00" fill="red">+</text>
<text text-anchor="start" x="542" y="-129" font-family="Times,serif" font-size="14.00" fill="red">+</text>
<text text-anchor="start" x="542" y="-115" font-family="Times,serif" font-size="14.00" fill="red">+</text>
<text text-anchor="start" x="542" y="-101" font-family="Times,serif" font-size="14.00" fill="red">+</text>
<text text-anchor="start" x="542" y="-87" font-family="Times,serif" font-size="14.00" fill="red">+</text>
<text text-anchor="start" x="542" y="-73" font-family="Times,serif" font-size="14.00" fill="red">+</text>
<text text-anchor="start" x="542" y="-59" font-family="Times,serif" font-size="14.00" fill="red">+</text>
<text text-anchor="start" x="542" y="-45" font-family="Times,serif" font-size="14.00" fill="red">+</text>
<polygon fill="white" stroke="white" points="552,-44 552,-198 671,-198 671,-44 552,-44"/>
<text text-anchor="start" x="552" y="-185" font-family="Times,serif" font-size="14.00">URI</text>
<text text-anchor="start" x="552" y="-171" font-family="Times,serif" font-size="14.00">_add_AllowedValue</text>
<text text-anchor="start" x="552" y="-157" font-family="Times,serif" font-size="14.00">_generate_URI</text>
<text text-anchor="start" x="552" y="-143" font-family="Times,serif" font-size="14.00">add_AllowedValue</text>
<text text-anchor="start" x="552" y="-129" font-family="Times,serif" font-size="14.00">allowedValues</text>
<text text-anchor="start" x="552" y="-115" font-family="Times,serif" font-size="14.00">label</text>
<text text-anchor="start" x="552" y="-101" font-family="Times,serif" font-size="14.00">maxCount</text>
<text text-anchor="start" x="552" y="-87" font-family="Times,serif" font-size="14.00">meta</text>
<text text-anchor="start" x="552" y="-73" font-family="Times,serif" font-size="14.00">minCount</text>
<text text-anchor="start" x="552" y="-59" font-family="Times,serif" font-size="14.00">onPropertyType</text>
<text text-anchor="start" x="552" y="-45" font-family="Times,serif" font-size="14.00">type</text>
</g>
<!-- class_10 -->
<g id="node10" class="node"><title>class_10</title>
<polygon fill="#f1e1f4" stroke="#f1e1f4" points="865,-505 865,-530 1074,-530 1074,-505 865,-505"/>
<polygon fill="none" stroke="black" points="865,-505 865,-530 1074,-530 1074,-505 865,-505"/>
<text text-anchor="start" x="870.5" y="-511.5" font-family="Times,serif" font-size="14.00">FAIR::Profile::SerializableProperty</text>
<polygon fill="none" stroke="black" points="865,-493 865,-505 1074,-505 1074,-493 865,-493"/>
<polygon fill="white" stroke="white" points="970,-498 970,-500 1069,-500 1069,-498 970,-498"/>
<polygon fill="none" stroke="black" points="865,-469 865,-493 1074,-493 1074,-469 865,-469"/>
<text text-anchor="start" x="911.5" y="-475" font-family="Times,serif" font-size="14.00" fill="red">+</text>
<polygon fill="white" stroke="white" points="960,-474 960,-488 1069,-488 1069,-474 960,-474"/>
<text text-anchor="start" x="960" y="-475" font-family="Times,serif" font-size="14.00">meta</text>
</g>
<!-- angle_2&#45;&gt;class_1 -->
<g id="edge4" class="edge"><title>angle_2&#45;&gt;class_1:title</title>
<path fill="none" stroke="red" d="M80,-321.435C80,-302.776 80,-230.47 80,-171"/>
</g>
<!-- angle_4&#45;&gt;class_6 -->
<g id="edge8" class="edge"><title>angle_4&#45;&gt;class_6:title</title>
<path fill="none" stroke="red" d="M427.601,-321.463C411.492,-314.147 379.972,-298.658 357,-280 349.179,-273.647 352.076,-263 342,-263"/>
</g>
<!-- angle_4&#45;&gt;class_7 -->
<g id="edge10" class="edge"><title>angle_4&#45;&gt;class_7:title</title>
<path fill="none" stroke="red" d="M438,-321.405C438,-307.962 438,-267.542 438,-234"/>
</g>
<!-- angle_4&#45;&gt;class_9 -->
<g id="edge12" class="edge"><title>angle_4&#45;&gt;class_9:title</title>
<path fill="none" stroke="red" d="M448.467,-322.579C465.16,-316.598 497.781,-302.67 516,-280 531.231,-261.047 508.685,-228 533,-228"/>
</g>
</g>
</svg>
